<svg version="1" xmlns="http://www.w3.org/2000/svg" width="372" height="372" viewBox="0 0 279.000000 279.000000"><path d="M70 8.5V17H35v18H17v17H0v105h17v70H0v35h52v-18h122v18h53v-35h-18v-35h18v17h35V35h-35V0h-53v17h-35V0H70v8.5zM139 26v9h18v17h17v87h-17v18h-18v17H87v-69h18V52H87v35H70v18H52V87H35V52h17V35h18v17h17V17h52v9zm105 87.5V157h-17V70h17v43.5zm-35-.5v26h-17V87h17v26zM87 200.5v8.5H52v-17h35v8.5zm87 0v8.5h-35v-17h35v8.5z"/><path d="M105 43.5V52h17v18h35V52h-18V35h-34v8.5zM122 113.5v8.5h-17v35h17v-18h17v-17h18v-17h-35v8.5z"/></svg>